<svg width="512" height="512" viewBox="0 0 512 512" fill="none" xmlns="http://www.w3.org/2000/svg">
  <!-- Heart with people icon - Community care logo -->
  <defs>
    <linearGradient id="logoGradient" x1="0%" y1="0%" x2="100%" y2="100%">
      <stop offset="0%" style="stop-color:#4F9CF9;stop-opacity:1" />
      <stop offset="100%" style="stop-color:#2563EB;stop-opacity:1" />
    </linearGradient>
  </defs>
  
  <!-- Heart shape -->
  <path d="M256 448C256 448 64 320 64 192C64 131.2 115.2 80 176 80C208 80 237.6 94.4 256 116.8C274.4 94.4 304 80 336 80C396.8 80 448 131.2 448 192C448 320 256 448 256 448Z" fill="#B8D4FF" stroke="url(#logoGradient)" stroke-width="24" stroke-linecap="round" stroke-linejoin="round"/>
  
  <!-- Center person -->
  <circle cx="256" cy="200" r="28" fill="white" stroke="url(#logoGradient)" stroke-width="12"/>
  <path d="M256 240C220 240 200 260 200 290V340" stroke="url(#logoGradient)" stroke-width="12" stroke-linecap="round"/>
  <path d="M256 240C292 240 312 260 312 290V340" stroke="url(#logoGradient)" stroke-width="12" stroke-linecap="round"/>
  
  <!-- Left person -->
  <circle cx="180" cy="210" r="24" fill="white" stroke="url(#logoGradient)" stroke-width="12"/>
  <path d="M180 245C152 245 135 262 135 287V325" stroke="url(#logoGradient)" stroke-width="12" stroke-linecap="round"/>
  <path d="M180 245C208 245 225 262 225 287V325" stroke="url(#logoGradient)" stroke-width="12" stroke-linecap="round"/>
  
  <!-- Right person -->
  <circle cx="332" cy="210" r="24" fill="white" stroke="url(#logoGradient)" stroke-width="12"/>
  <path d="M332 245C304 245 287 262 287 287V325" stroke="url(#logoGradient)" stroke-width="12" stroke-linecap="round"/>
  <path d="M332 245C360 245 377 262 377 287V325" stroke="url(#logoGradient)" stroke-width="12" stroke-linecap="round"/>
  
  <!-- Left hand -->
  <path d="M90 180C90 180 70 200 70 240C70 280 80 340 100 400C110 430 120 460 130 480" stroke="url(#logoGradient)" stroke-width="20" stroke-linecap="round" fill="none"/>
  <path d="M90 180C100 160 120 140 140 130" stroke="url(#logoGradient)" stroke-width="20" stroke-linecap="round" fill="none"/>
  <path d="M100 400C110 390 125 370 135 350" stroke="url(#logoGradient)" stroke-width="16" stroke-linecap="round" fill="none"/>
  
  <!-- Right hand -->
  <path d="M422 180C422 180 442 200 442 240C442 280 432 340 412 400C402 430 392 460 382 480" stroke="url(#logoGradient)" stroke-width="20" stroke-linecap="round" fill="none"/>
  <path d="M422 180C412 160 392 140 372 130" stroke="url(#logoGradient)" stroke-width="20" stroke-linecap="round" fill="none"/>
  <path d="M412 400C402 390 387 370 377 350" stroke="url(#logoGradient)" stroke-width="16" stroke-linecap="round" fill="none"/>
</svg>
