<svg xmlns="http://www.w3.org/2000/svg" viewBox="0 0 512 512" fill="none">
  <!-- Hands holding heart with people -->
  <defs>
    <linearGradient id="blueGradient" x1="0%" y1="0%" x2="100%" y2="100%">
      <stop offset="0%" style="stop-color:#4F9EF8;stop-opacity:1" />
      <stop offset="100%" style="stop-color:#2563EB;stop-opacity:1" />
    </linearGradient>
  </defs>
  
  <!-- Background circle -->
  <circle cx="256" cy="256" r="240" fill="#E0EFFF" opacity="0.3"/>
  
  <!-- Left hand -->
  <path d="M 80 180 Q 60 200 60 240 L 60 380 Q 60 420 80 450 L 120 490 Q 140 500 160 480 L 180 440 Q 190 420 180 400 L 140 300 Q 130 260 120 240 Q 110 200 80 180 Z" 
        fill="url(#blueGradient)" stroke="#2563EB" stroke-width="8" stroke-linejoin="round"/>
  
  <!-- Right hand -->
  <path d="M 432 180 Q 452 200 452 240 L 452 380 Q 452 420 432 450 L 392 490 Q 372 500 352 480 L 332 440 Q 322 420 332 400 L 372 300 Q 382 260 392 240 Q 402 200 432 180 Z" 
        fill="url(#blueGradient)" stroke="#2563EB" stroke-width="8" stroke-linejoin="round"/>
  
  <!-- Heart shape -->
  <path d="M 256 140 Q 220 100 180 100 Q 140 100 120 130 Q 100 160 120 200 Q 140 240 180 280 L 256 350 L 332 280 Q 372 240 392 200 Q 412 160 392 130 Q 372 100 332 100 Q 292 100 256 140 Z" 
        fill="#B3D4FF" stroke="#2563EB" stroke-width="8" stroke-linejoin="round"/>
  
  <!-- Three people silhouettes inside heart -->
  <!-- Left person -->
  <circle cx="180" cy="180" r="20" fill="#2563EB"/>
  <path d="M 180 205 L 180 270 M 160 230 L 200 230" stroke="#2563EB" stroke-width="12" stroke-linecap="round"/>
  
  <!-- Center person -->
  <circle cx="256" cy="170" r="24" fill="#2563EB"/>
  <path d="M 256 200 L 256 280 M 230 235 L 282 235" stroke="#2563EB" stroke-width="14" stroke-linecap="round"/>
  
  <!-- Right person -->
  <circle cx="332" cy="180" r="20" fill="#2563EB"/>
  <path d="M 332 205 L 332 270 M 312 230 L 352 230" stroke="#2563EB" stroke-width="12" stroke-linecap="round"/>
</svg>
